<?xml version="1.0" standalone="no"?>
<!DOCTYPE svg PUBLIC "-//W3C//DTD SVG 20010904//EN"
 "http://www.w3.org/TR/2001/REC-SVG-20010904/DTD/svg10.dtd">
<svg version="1.0" xmlns="http://www.w3.org/2000/svg"
 width="378.000000pt" height="378.000000pt" viewBox="0 0 378.000000 378.000000"
 preserveAspectRatio="xMidYMid meet">
<metadata>
Created by potrace 1.11, written by Peter Selinger 2001-2013
</metadata>
<g transform="translate(0.000000,378.000000) scale(0.100000,-0.100000)"
fill="#000000" stroke="none">
<path d="M862 3254 c-65 -21 -93 -35 -141 -69 -8 -5 -41 -36 -73 -69 -63 -63
-101 -126 -129 -221 -18 -57 -19 -113 -16 -1025 1 -531 5 -975 9 -987 4 -12
12 -31 18 -43 6 -12 13 -31 15 -42 3 -11 11 -28 20 -38 8 -9 15 -22 15 -29 0
-20 132 -145 183 -174 27 -14 79 -36 115 -47 65 -19 94 -20 1022 -19 951 1
955 1 1020 22 120 40 214 109 281 208 22 32 36 59 32 59 -4 0 -3 4 3 8 6 4 20
36 32 72 20 64 21 82 21 1020 1 929 0 957 -19 1020 -29 93 -45 123 -101 190
-55 66 -155 139 -211 155 -5 2 -9 3 -10 5 -2 1 -10 3 -18 5 -8 2 -33 9 -55 14
-26 7 -375 10 -990 10 l-950 0 -73 -25z"/>
</g>
</svg>
