<?xml version="1.0" standalone="no"?>
<!DOCTYPE svg PUBLIC "-//W3C//DTD SVG 20010904//EN"
 "http://www.w3.org/TR/2001/REC-SVG-20010904/DTD/svg10.dtd">
<svg version="1.0" xmlns="http://www.w3.org/2000/svg"
 width="357.000000pt" height="357.000000pt" viewBox="0 0 357.000000 357.000000"
 preserveAspectRatio="xMidYMid meet">
<metadata>
Created by potrace 1.11, written by Peter Selinger 2001-2013
</metadata>
<g transform="translate(0.000000,357.000000) scale(0.100000,-0.100000)"
fill="#000000" stroke="none">
<path d="M510 3554 c-68 -14 -194 -71 -239 -108 -25 -21 -125 -121 -149 -150
-6 -8 -12 -20 -12 -26 0 -5 -4 -10 -10 -10 -5 0 -12 -11 -16 -25 -3 -14 -10
-25 -15 -25 -5 0 -9 -9 -9 -20 0 -11 -5 -20 -11 -20 -6 0 -9 -6 -6 -12 2 -7 0
-22 -6 -33 -35 -68 -36 -116 -34 -1365 1 -674 5 -1234 9 -1245 47 -149 89
-224 171 -307 89 -92 214 -168 297 -183 8 -2 26 -7 40 -11 14 -5 574 -10 1245
-11 1196 -2 1335 1 1335 29 0 5 5 6 10 3 6 -4 18 -1 27 7 9 7 17 11 17 10 2
-9 86 31 86 41 0 6 3 7 7 4 6 -7 92 58 106 80 4 7 15 13 22 13 8 0 15 3 15 8
0 4 10 19 23 34 39 47 62 81 60 90 -2 4 1 8 5 8 8 0 32 41 38 63 1 4 3 10 4
15 1 4 2 10 1 15 0 4 3 7 7 7 5 0 9 6 10 13 0 6 4 23 7 37 4 14 9 37 10 53 1
15 5 30 8 34 8 7 8 2399 0 2455 -3 21 -9 36 -13 33 -5 -3 -6 4 -3 16 6 22 5
26 -53 142 -42 87 -160 219 -230 256 -21 12 -46 25 -54 31 -31 19 -87 40 -150
54 -94 22 -2450 22 -2550 0z m133 -228 c7 12 2298 11 2316 0 11 -7 12 -6 6 5
-8 12 -6 12 8 0 9 -7 17 -11 17 -8 0 7 103 -23 110 -32 3 -3 18 -13 34 -21 34
-17 124 -106 138 -135 5 -11 16 -32 24 -48 8 -15 16 -36 17 -47 1 -11 4 -20 7
-20 3 0 7 -15 9 -32 5 -41 4 -2373 -1 -2410 -2 -16 -7 -28 -11 -28 -5 0 -6 -4
-3 -8 10 -16 -53 -127 -97 -172 -47 -47 -77 -74 -89 -78 -5 -1 -23 -9 -40 -16
-49 -21 -71 -29 -90 -31 -10 -2 -19 -4 -20 -5 -6 -6 -2388 -5 -2388 1 0 3 -11
5 -25 4 -14 -2 -25 0 -25 5 0 4 -14 10 -32 14 -17 3 -39 13 -47 20 -9 8 -22
16 -30 18 -28 7 -141 129 -141 153 0 8 -4 15 -10 15 -5 0 -10 9 -10 20 0 11
-3 20 -7 20 -5 0 -9 10 -10 23 -3 25 -10 62 -13 62 -2 0 -3 532 -4 1183 0 650
1 1182 4 1182 3 0 6 16 7 36 3 52 54 153 107 207 25 26 51 47 56 47 6 0 8 5 4
12 -5 8 -2 9 9 5 10 -3 17 -3 17 2 0 14 87 49 144 57 16 2 32 6 34 9 3 3 9 0
13 -6 3 -6 9 -7 12 -3z"/>
<path d="M1568 2715 c-1 -1 -30 -6 -63 -9 -75 -8 -198 -40 -189 -49 4 -4 0 -7
-10 -7 -28 0 -123 -53 -176 -98 -52 -45 -122 -121 -133 -144 -6 -16 -15 -28
-19 -28 -7 0 -70 -123 -75 -145 -1 -5 -11 -36 -22 -67 -12 -32 -21 -69 -21
-83 0 -15 -4 -23 -10 -20 -5 3 -7 0 -4 -9 3 -8 1 -24 -5 -35 -7 -13 -8 -22 -1
-26 6 -4 7 -13 1 -23 -12 -23 -11 -262 1 -286 7 -13 7 -16 -1 -12 -8 5 -8 -1
-1 -20 6 -15 9 -33 6 -40 -3 -8 -1 -16 5 -19 5 -4 9 -12 8 -18 -3 -15 9 -62
24 -102 7 -16 12 -33 12 -37 0 -3 3 -10 8 -14 4 -4 7 -15 7 -24 0 -10 7 -23
15 -30 8 -7 13 -16 10 -20 -3 -4 4 -19 15 -33 11 -14 20 -30 20 -36 0 -6 5
-11 10 -11 6 0 10 -4 10 -10 0 -17 113 -140 129 -140 5 0 11 -3 13 -7 5 -12
78 -65 78 -57 0 3 6 1 13 -5 20 -16 155 -70 161 -64 2 3 10 2 17 -3 27 -16
290 -24 359 -10 19 3 46 7 60 9 14 1 27 4 30 7 3 3 31 14 63 24 31 11 57 23
57 28 0 4 3 7 8 6 12 -4 85 44 109 71 13 15 23 22 23 18 0 -4 13 7 28 25 44
53 82 106 82 116 0 5 7 15 15 22 8 7 12 16 9 21 -3 5 0 9 5 9 6 0 10 3 9 8 -1
4 4 21 11 37 7 17 15 41 18 55 2 13 9 28 15 31 6 4 7 12 4 18 -4 6 -4 17 1 24
4 6 8 21 9 32 1 11 5 35 8 53 5 28 3 34 -16 41 -13 5 -24 5 -26 0 -2 -4 -10
-5 -19 -2 -15 6 -73 7 -90 3 -5 -1 -12 -2 -17 -1 -6 1 -20 0 -33 -4 -17 -4
-23 -13 -23 -32 0 -37 -31 -157 -42 -164 -5 -3 -10 -12 -12 -20 -2 -16 -23
-56 -40 -77 -34 -43 -113 -113 -133 -118 -13 -4 -23 -10 -23 -14 0 -6 -30 -19
-60 -24 -3 -1 -11 -5 -19 -10 -7 -5 -40 -10 -72 -11 -32 -2 -62 -6 -68 -9 -5
-3 -15 -4 -23 -2 -7 3 -42 7 -76 11 -67 6 -183 47 -203 71 -6 8 -17 14 -23 14
-6 0 -18 9 -26 20 -8 11 -19 20 -25 20 -5 1 -23 19 -40 41 -16 22 -36 46 -43
54 -7 8 -11 15 -7 15 3 0 -3 13 -14 28 -11 16 -21 35 -23 43 -2 8 -6 16 -9 19
-5 5 -36 109 -45 153 -33 167 -18 418 32 525 9 19 13 36 10 39 -2 3 0 10 5 17
5 6 27 38 48 72 75 119 179 195 308 225 61 14 197 18 243 7 19 -5 48 -11 64
-13 16 -2 34 -9 40 -15 5 -5 18 -10 28 -10 10 0 18 -3 18 -8 0 -4 12 -13 28
-19 54 -25 152 -139 152 -178 0 -9 5 -13 10 -10 6 3 10 -2 10 -13 0 -36 21
-80 41 -85 10 -3 19 -2 19 1 0 6 121 7 145 1 19 -4 45 13 38 25 -4 6 -8 13 -8
16 -8 65 -49 164 -95 232 -22 32 -94 104 -138 140 -33 26 -182 94 -234 107
-64 15 -261 34 -270 26z"/>
<path d="M2627 1253 c-4 -3 -7 -62 -7 -130 l0 -123 43 -1 c124 -2 209 1 218 6
7 5 6 11 -1 20 -8 9 -8 15 0 20 7 4 7 12 0 26 -7 12 -7 19 -1 19 7 0 7 8 2 23
-5 12 -5 31 -1 42 4 11 4 28 -1 37 -6 10 -5 19 1 23 7 4 7 12 0 24 -8 16 -24
19 -128 20 -66 0 -122 -2 -125 -6z"/>
</g>
</svg>
