<svg xmlns="http://www.w3.org/2000/svg" viewBox="0 0 271.52 271.6"><defs><style>.cls-1{fill:none;stroke:#74eef3;stroke-miterlimit:10;stroke-width:25px;}</style></defs><title>Asset 40</title><g id="Layer_2" data-name="Layer 2"><g id="Layer_1-2" data-name="Layer 1"><path class="cls-1" d="M166.73,259.1H216.3s9.13-2,11.08-11.08,1.31-97.83,1.31-97.83H247c10.28,0,14-11.59,11.13-19.77-2-5.63-6.28-9.37-10.23-13.56q-3.94-4.17-7.94-8.29Q230,98.36,220,88.3q-22.11-22.22-44.5-44.15-14.08-13.86-28.23-27.64l-1.36-1.33s-11.74-7.17-21.53,2S105.36,35.83,96,45.23Q72.71,68.45,49.55,91.74l-18.9,19C25.37,116,18,121.27,14.38,127.91c-4.23,7.85-1.3,21.22,8.54,22,17.61,1.3,20.22,1.3,20.22,1.3v93.92s2,13,12.39,13.7,48.91,0,48.91,0V179.86s0-13,18.26-13q12.92,0,25.83,0a29,29,0,0,1,6.84.51c13.71,3.22,11.3,19.27,11.37,29.91.09,13.36.08,26.73,0,40.1Q166.78,248.2,166.73,259.1Z"/></g></g></svg>