<svg xmlns="http://www.w3.org/2000/svg" viewBox="0 0 246.52 246.6"><defs><style>.cls-1{fill:#404040;}</style></defs><title>Asset 32</title><g id="Layer_2" data-name="Layer 2"><g id="Layer_1-2" data-name="Layer 1"><path class="cls-1" d="M154.23,246.6H203.8s9.13-1.95,11.08-11.08,1.31-97.83,1.31-97.83h18.26c10.28,0,14-11.59,11.13-19.77-2-5.63-6.28-9.37-10.23-13.56q-3.94-4.17-7.94-8.29-9.9-10.21-20-20.27Q185.34,53.59,163,31.65,148.87,17.79,134.72,4l-1.36-1.33s-11.74-7.17-21.53,2-19,18.69-28.38,28.09Q60.21,56,37.05,79.24l-18.9,19c-5.28,5.3-12.69,10.54-16.27,17.18-4.23,7.85-1.3,21.22,8.54,22,17.61,1.3,20.22,1.3,20.22,1.3v93.92s2,13,12.39,13.7,48.91,0,48.91,0V167.36s0-13,18.26-13q12.92,0,25.83,0a29,29,0,0,1,6.84.51c13.71,3.22,11.3,19.27,11.37,29.91.09,13.36.08,26.73,0,40.1Q154.28,235.7,154.23,246.6Z"/></g></g></svg>